<?xml version="1.0" encoding="UTF-8"?>
<svg xmlns="http://www.w3.org/2000/svg" version="1.1" viewBox="0 0 619.1 165.8">
  <defs>
    <style>
      .cls-1 {
        fill: #a5a5a5;
      }
    </style>
  </defs>
  <!-- Generator: Adobe Illustrator 28.7.3, SVG Export Plug-In . SVG Version: 1.2.0 Build 164)  -->
  <g>
    <g id="_レイヤー_1">
      <path class="cls-1" d="M618.5,150.7c-.7-.8-12.2-5.5-20.3-10.6-12.9-8.1-45.6-33.7-47.3-45.6-2-13.7,28.1-36.8,41.7-45.6,17.9-11.6,40.4-18.4,14-16.1-40.7,3.6-75.9,26.7-100.2,48.9-3.9.7-44.2-8.7-43.5-15.6-12.5,3.5-60.2-21.2-90.5-22.7-2.6-1.4,13.1-2.4,13.1-3.2,0-1.6-17.2-13.4-4.2-29.7,5.3-6.7,18.9-10.6,3.1-10.3-31.2.5-63.6,21.1-75,41.3-53,5.7-73.8,16.8-108.6,44.3-7.7,2.3-192.4,2.9-200.8,8.7,6,4.7,186.6,3.7,195.9,4.9,37,22,83.9,35.2,131.7,38.3,7,9.5,20.7,27.8,37.8,28.2,9.8.2,1.5-2.6-1.8-13.9-.5-1.8-2.6-14.2-1.8-14.9,15,.1,47.9-7.9,50.5-7.6.6,0,9.2,4.4,11.2,5,2.2-.3,2.7-8.4,4.9-10.1,1.1-.8,27.8-9.9,29.4-10.1,4.7-.4,6.5,2.5,7,2.5,2.6,0,.4-3.9,3.5-6.1,1.5-1,31.7-11.1,38.5-9.6,5.5,1.2,25.8,37.4,89,49.4,3.1.6,27.2,5.3,22.4,0h0ZM232.5,92.7c-6.7.8-7.9-8.8-3.5-10.1,9.7-2.7,10.6,9.2,3.5,10.1Z"/>
    </g>
  </g>
</svg>